<?xml version="1.0" standalone="no"?>
<!DOCTYPE svg PUBLIC "-//W3C//DTD SVG 20010904//EN"
 "http://www.w3.org/TR/2001/REC-SVG-20010904/DTD/svg10.dtd">
<svg version="1.0" xmlns="http://www.w3.org/2000/svg"
 width="250.000000pt" height="250.000000pt" viewBox="0 0 250.000000 250.000000"
 preserveAspectRatio="xMidYMid meet">
<metadata>
Created by potrace 1.16, written by Peter Selinger 2001-2019
</metadata>
<g transform="translate(0.000000,250.000000) scale(0.100000,-0.100000)"
fill="#000000" stroke="none">
<path d="M763 2431 c-203 -52 -358 -268 -339 -472 25 -268 285 -598 745 -947
108 -82 90 -83 219 15 190 144 426 369 530 504 71 94 139 216 168 301 86 259
-46 520 -300 593 -43 13 -84 16 -152 13 -84 -3 -100 -7 -177 -46 -79 -39 -123
-76 -170 -142 l-18 -25 -21 30 c-42 58 -104 108 -178 144 -69 33 -83 36 -175
38 -55 1 -114 -2 -132 -6z m261 -89 c100 -45 188 -142 222 -244 8 -27 19 -48
23 -48 4 0 15 24 26 53 38 107 102 179 205 230 59 29 73 32 160 32 87 0 101
-3 161 -32 80 -39 150 -111 187 -191 24 -50 27 -69 26 -157 0 -89 -3 -108 -30
-170 l-31 -70 -541 -3 c-430 -2 -542 0 -542 10 0 7 -5 30 -11 51 -10 38 -29
51 -29 20 0 -9 -3 -14 -6 -10 -3 3 -10 51 -14 107 -8 96 -13 120 -25 108 -3
-3 -11 -90 -18 -194 -12 -179 -13 -185 -20 -117 -5 40 -12 75 -16 78 -5 2 -14
-9 -21 -25 -12 -29 -14 -30 -86 -30 l-74 0 -18 38 c-100 197 -60 401 100 519
78 57 137 74 238 70 60 -2 99 -10 134 -25z m-198 -612 c4 -12 9 -9 24 10 l20
25 0 -22 0 -23 540 0 c297 0 540 -2 540 -5 0 -20 -106 -161 -199 -264 -134
-150 -468 -430 -494 -414 -7 4 -66 49 -132 101 -153 121 -401 371 -483 487
l-64 90 78 3 c87 3 94 -1 94 -63 0 -64 12 -115 25 -115 14 0 25 64 25 144 0
28 4 69 8 91 l7 40 3 -35 c1 -19 5 -42 8 -50z"/>
<path d="M430 1584 c-40 -14 -63 -31 -75 -55 -17 -31 -55 -496 -55 -660 0
-167 34 -302 101 -403 17 -25 80 -97 139 -160 103 -108 143 -166 169 -248 14
-41 33 -53 62 -37 26 14 20 49 -26 144 -26 54 -63 102 -155 200 -90 97 -130
147 -156 200 -40 82 -64 195 -64 303 0 114 40 603 51 624 11 21 44 24 56 6 4
-7 10 -123 13 -258 l5 -245 30 0 30 0 3 198 c2 158 5 197 16 197 36 0 40 -25
27 -197 -11 -143 -10 -168 2 -181 9 -8 23 -11 35 -8 17 6 22 18 27 74 14 155
17 172 29 172 34 0 39 -26 25 -148 -13 -128 -10 -152 19 -152 30 0 39 19 51
116 21 174 11 219 -58 250 -32 14 -41 24 -46 52 -8 44 -57 92 -94 92 -23 0
-28 6 -39 45 -12 46 -37 70 -82 79 -14 3 -32 3 -40 0z"/>
<path d="M2050 1583 c-28 -11 -53 -38 -71 -80 -11 -26 -25 -43 -35 -43 -46 0
-94 -54 -94 -104 0 -17 -7 -26 -24 -30 -37 -9 -84 -53 -91 -85 -7 -32 12 -233
26 -268 9 -26 40 -30 58 -9 8 9 8 34 0 92 -5 43 -9 104 -7 134 3 47 6 55 23
55 18 0 21 -9 28 -110 8 -117 19 -142 56 -130 25 8 26 30 10 225 -11 125 -10
134 7 147 10 7 21 13 26 13 4 0 8 -80 8 -177 0 -98 3 -188 6 -200 8 -29 49
-31 64 -4 6 12 10 110 10 248 1 175 4 232 14 246 13 17 14 17 35 0 19 -16 23
-40 42 -268 27 -319 27 -454 0 -558 -30 -115 -63 -166 -194 -305 -92 -98 -126
-142 -157 -205 -45 -89 -52 -142 -20 -152 29 -9 35 -2 65 72 35 87 48 106 182
246 125 132 168 204 196 332 28 126 30 210 8 485 -32 402 -31 398 -96 426 -36
15 -50 16 -75 7z"/>
<path d="M532 961 c-35 -22 -52 -55 -52 -100 0 -25 91 -195 176 -328 35 -54
61 -66 83 -39 14 17 1 45 -84 186 -53 87 -105 184 -105 194 0 13 49 36 63 30
9 -3 58 -55 108 -115 50 -60 131 -142 180 -184 49 -41 96 -90 105 -107 14 -26
47 -186 91 -435 7 -40 25 -57 54 -48 26 9 25 20 -21 280 -41 234 -54 262 -171
361 -49 41 -127 119 -173 172 -46 53 -95 108 -109 121 -36 33 -102 38 -145 12z"/>
<path d="M1874 961 c-17 -10 -65 -59 -107 -108 -41 -49 -123 -134 -182 -188
-59 -55 -115 -116 -126 -137 -11 -21 -37 -137 -60 -264 -38 -209 -40 -227 -25
-242 24 -25 48 -5 63 54 6 27 26 127 43 223 20 113 38 186 51 207 11 18 55 62
98 98 44 36 117 109 164 163 121 141 131 149 162 135 14 -6 25 -19 25 -28 0
-9 -43 -91 -95 -183 -54 -92 -94 -175 -93 -186 2 -13 12 -21 29 -23 24 -3 34
10 128 170 88 151 101 178 101 218 0 91 -96 140 -176 91z"/>
</g>
</svg>
